<svg id="Layer_1" data-name="Layer 1" xmlns="http://www.w3.org/2000/svg" xmlns:xlink="http://www.w3.org/1999/xlink" viewBox="0 0 251.95 217.88"><defs><style>.cls-1{fill:none;}.cls-2{opacity:0.7;}.cls-3{clip-path:url(#clip-path);}.cls-4{fill:#fff;}.cls-5{clip-path:url(#clip-path-3);}.cls-6{clip-path:url(#clip-path-4);}</style><clipPath id="clip-path" transform="translate(-4.44 -2.04)"><rect class="cls-1" x="4.44" y="2.04" width="251.95" height="217.59"/></clipPath><clipPath id="clip-path-3" transform="translate(-4.44 -2.04)"><rect class="cls-1" x="21.77" y="19.29" width="222.19" height="200.35"/></clipPath><clipPath id="clip-path-4" transform="translate(-4.44 -2.04)"><rect class="cls-1" x="21.77" y="19.29" width="222.19" height="200.35"/></clipPath></defs><title>helm-logo-no-strap-header-white</title><g class="cls-2"><g class="cls-3"><g class="cls-3"><polygon class="cls-4" points="45.26 217.59 0 90.21 180.69 0 251.95 164.41 220.08 172.61 220.27 108.8 51.18 108.8 51.18 215.82 45.26 217.59"/></g></g></g><g class="cls-2"><g class="cls-5"><g class="cls-6"><polygon class="cls-4" points="43.73 217.59 17.33 61.6 208.88 17.24 239.52 194 222.78 196.02 222.78 117.42 50.21 117.42 50.21 216.81 43.73 217.59"/></g></g></g><path class="cls-4" d="M48.5,219.93H231.36V41.77H48.5Zm43.14-9.47H84.58V186.32a21.69,21.69,0,0,0-.8-6.81c-1.31-3.68-4.55-5.43-8.31-5.43a10.55,10.55,0,0,0-9.17,5.17c-1.94,3.32-1.94,7.16-1.94,10.75v20.46h-7V148.72h7v24.75A15.81,15.81,0,0,1,76.86,168c12.52,0,14.78,8.91,14.78,15.83Zm47.75-19.32H108.08v.51c0,6.39,3.49,14.88,13.39,14.88,7.26,0,10-5.85,10.85-9.63l7.07,1c-.95,2.88-4.81,13.91-18.62,13.91-10.15,0-20.2-6.05-20.2-22.31,0-15.64,11.36-21.51,19.93-21.51,9,0,18.89,6,18.89,22Zm15.82,19.32h-6.65V148.72h6.65Zm67.5,0h-6.89V183c0-7.26-4.81-8.49-7.52-8.49-3.94,0-8.65,2.88-9.88,6.82-.44,1.31-.52,3-.52,5.94v23.18h-6.84V183.62c0-8.13-5.24-9-7.6-9-3.59,0-8.39,2.44-9.8,6.12-.51,1.31-.61,2.55-.61,5.24v24.49H166.5V169.27h6.55v5.59c3.42-4,7.26-6.9,12.41-6.9a11.65,11.65,0,0,1,8.59,3.84,22,22,0,0,1,2.52,3.76c2.47-2.26,6.75-7.6,13.83-7.6a12.58,12.58,0,0,1,9.54,4.55c2.62,3.13,2.77,6.91,2.77,10.77Z" transform="translate(-4.44 -2.04)"/><path class="cls-4" d="M131.79,186.07H108.27c.6-6.56,4.27-12.69,11.7-12.69,7,0,11.82,5.87,11.82,12.69" transform="translate(-4.44 -2.04)"/></svg>