<svg id="Layer_1" data-name="Layer 1" xmlns="http://www.w3.org/2000/svg" xmlns:xlink="http://www.w3.org/1999/xlink" viewBox="0 0 252.02 217.94"><defs><style>.cls-1{fill:none;}.cls-2{fill:#fff;}.cls-3{opacity:0.5;}.cls-4{clip-path:url(#clip-path);}.cls-5{fill:#00928f;}.cls-6{clip-path:url(#clip-path-2);}.cls-7{fill:#00a2a1;}</style><clipPath id="clip-path" transform="translate(-3.99 -2.03)"><rect id="SVGID" class="cls-1" x="3.99" y="2.03" width="252.01" height="217.65"/></clipPath><clipPath id="clip-path-2" transform="translate(-3.99 -2.03)"><rect id="SVGID-2" data-name="SVGID" class="cls-1" x="21.32" y="19.26" width="222.25" height="200.41"/></clipPath></defs><title>helm-logo-no-strap-base</title><polygon class="cls-2" points="45.27 217.65 0 90.23 180.73 0 252.02 164.46 45.27 217.65"/><polygon class="cls-2" points="43.74 217.65 17.33 61.61 208.93 17.23 239.57 194.05 43.74 217.65"/><g class="cls-3"><g class="cls-4"><polygon class="cls-5" points="45.27 217.65 0 90.23 180.73 0 252.02 164.46 45.27 217.65"/></g></g><g class="cls-3"><g class="cls-6"><polygon class="cls-5" points="43.74 217.65 17.33 61.61 208.93 17.23 239.57 194.05 43.74 217.65"/></g></g><rect class="cls-7" x="44.06" y="39.74" width="182.92" height="178.2"/><path class="cls-2" d="M84.14,210.5V186.35a21.79,21.79,0,0,0-.79-6.82c-1.31-3.67-4.55-5.42-8.31-5.42a10.57,10.57,0,0,0-9.18,5.16c-1.93,3.32-1.93,7.17-1.93,10.75V210.5h-7V148.74h7V173.5A15.76,15.76,0,0,1,76.44,168c12.51,0,14.78,8.92,14.78,15.83V210.5Z" transform="translate(-3.99 -2.03)"/><path class="cls-2" d="M107.66,191.69c0,6.38,3.5,14.87,13.39,14.87,7.26,0,10-5.86,10.84-9.62l7.09,1c-1,2.89-4.81,13.91-18.63,13.91-10.15,0-20.21-6-20.21-22.31,0-15.66,11.37-21.51,19.94-21.51,9,0,18.9,6,18.9,22v1.13H107.66Zm23.71-5.6c0-6.82-4.81-12.68-11.81-12.68-7.43,0-11.11,6.12-11.72,12.68Z" transform="translate(-3.99 -2.03)"/><rect class="cls-2" x="144.17" y="146.71" width="6.65" height="61.76"/><path class="cls-2" d="M215.42,210.5V183c0-7.26-4.81-8.48-7.52-8.48-3.94,0-8.66,2.88-9.88,6.82a19.52,19.52,0,0,0-.53,5.94V210.5h-6.82V183.64c0-8.13-5.25-9-7.61-9-3.59,0-8.4,2.45-9.8,6.12-.53,1.32-.61,2.54-.61,5.25v24.5h-6.56V169.3h6.56v5.59c3.41-4,7.26-6.9,12.42-6.9a11.56,11.56,0,0,1,8.57,3.84,22.15,22.15,0,0,1,2.54,3.76c2.45-2.27,6.74-7.6,13.82-7.6a12.57,12.57,0,0,1,9.53,4.54c2.63,3.15,2.8,6.91,2.8,10.76V210.5Z" transform="translate(-3.99 -2.03)"/></svg>