<svg id="Layer_1" data-name="Layer 1" xmlns="http://www.w3.org/2000/svg" xmlns:xlink="http://www.w3.org/1999/xlink" viewBox="0 0 532 192"><defs><style>.cls-1{fill:#fff;}.cls-2{fill:url(#radial-gradient);}</style><radialGradient id="radial-gradient" cx="-1.69" cy="-17.34" r="242.98" gradientUnits="userSpaceOnUse"><stop offset="0" stop-color="#029bbd"/><stop offset="0.17" stop-color="#009abc"/><stop offset="1" stop-color="#272e69"/></radialGradient></defs><title>Artboard 1</title><path class="cls-1" d="M512.39,141.08V117.25c0-3-1.63-5.49-5.62-5.49a6.9,6.9,0,0,0-5.24,2,13.6,13.6,0,0,1,.5,4.61v22.71h-7.61V117.25c0-2.74-.75-5.61-5.61-5.61a9.19,9.19,0,0,0-4.74,1v28.44h-7.61V109.64a30.59,30.59,0,0,1,12.72-2.74c4.74,0,7.86,1.12,9.73,2.74a15.75,15.75,0,0,1,9.61-2.74c8,0,11.48,4.61,11.48,10.35v23.83Z"/><path class="cls-1" d="M432.21,141.08V117.75c0-3.24-1.38-5.61-5.62-5.61a9.91,9.91,0,0,0-5.61,1.62v27.32h-7.61V96.17H421v12.48a19.82,19.82,0,0,1,7.49-1.5c8.36,0,11.35,5,11.35,10.1v23.83Z"/><path class="cls-1" d="M339.48,102.68c-2.89,0-4.4-1.9-4.4-4s1.51-4,4.4-4a4,4,0,1,1,0,8.06Z"/><path class="cls-1" d="M367.71,141.08V117.25c0-2.74-1.13-5.61-6-5.61a10.79,10.79,0,0,0-5.11,1v28.44H349V109.64a32.65,32.65,0,0,1,13.1-2.74c10,0,13.22,4.86,13.22,10.23v24Z"/><polygon class="cls-1" points="335.67 141.08 335.67 107.52 343.29 107.52 343.29 141.08 335.67 141.08 335.67 141.08"/><path class="cls-1" d="M325.72,141.45c-6.62,0-9.23-3.74-9.23-9.1v-20h-3.75v-4.87h3.75v-6.74l7.61-2.12v8.86h5.36v4.87H324.1v20c0,3,1.62,3.87,3.74,3.87a13.84,13.84,0,0,0,2.25-.13v5a32.55,32.55,0,0,1-4.37.37Z"/><path class="cls-1" d="M305.4,141.45c-6.61,0-9.23-3.74-9.23-9.1v-20h-3.75v-4.87h3.75v-6.74l7.61-2.12v8.86h5.36v4.87h-5.36v20c0,3,1.62,3.87,3.75,3.87a13.72,13.72,0,0,0,2.24-.13v5a32.55,32.55,0,0,1-4.37.37Z"/><path class="cls-1" d="M250.1,141.08l-16-27a41.78,41.78,0,0,1-2.62-5.23h-.12a46.28,46.28,0,0,1,.37,5.48v26.7H224.4V98.29h7.86l14.85,25.2a30.18,30.18,0,0,1,2.37,4.86h.12a39.47,39.47,0,0,1-.25-5.11V98.29h7.36v42.79Z"/><path class="cls-1" d="M457.88,106.9a27.88,27.88,0,0,0-11.47,2.49l1.73,4.62a19.57,19.57,0,0,1,8.36-2.12c4,0,6.62,1.12,6.62,5.49v1.87a28.46,28.46,0,0,0-4.87-.5c-7.73,0-14,4-14,12,0,6.49,4.36,11.36,13.85,11.36a29.31,29.31,0,0,0,12.35-2.37V118.63c0-8.74-5.62-11.73-12.6-11.73Zm5.24,29.94a13.12,13.12,0,0,1-4.49.87c-4,0-6.74-2.62-6.74-7.24,0-4.36,2.37-7.35,7-7.35a20.79,20.79,0,0,1,4.24.49v13.23Z"/><path class="cls-1" d="M396,106.9c-10.83,0-16.18,6.86-16.18,17.72,0,10.47,5.35,16.71,13.44,16.71a14.23,14.23,0,0,0,6.59-1.25v2.12c0,4.49-2.36,7.36-8,7.36a18.6,18.6,0,0,1-8.09-1.86l-2.12,4.74a24.66,24.66,0,0,0,11.58,2.49c8.34,0,14.07-4.61,14.07-13.48V109.26A24.52,24.52,0,0,0,396,106.9Zm3.9,28.32a9,9,0,0,1-4.36,1.12c-5.37,0-7.74-4-7.74-11.72,0-8,2.5-13,8.1-13a7.84,7.84,0,0,1,4,.75v22.83Z"/><path class="cls-1" d="M275.85,106.9c-9.48,0-14.22,7.23-14.22,17.46s4.74,17.34,14.22,17.34,14.22-7.23,14.22-17.34-4.73-17.46-14.22-17.46Zm.5,30.19c-5.25,0-6.12-6.74-6.12-12.73s.87-12.85,6.12-12.85,6.11,6.74,6.11,12.85-.88,12.73-6.11,12.73Z"/><path class="cls-1" d="M454,55.31c-2.82,0-3.41,1.34-3.41,3.41v1h4v4.15h-4V82.74h-6.08V63.91H442V59.76h2.52V58.13c0-4.6,3-7.12,8-7.12a14.91,14.91,0,0,1,2.66.15v4.15Z"/><path class="cls-1" d="M397.09,91.93a17.82,17.82,0,0,1-7.86-1.63l1.34-3.56a13.32,13.32,0,0,0,5.63,1.19c3.86,0,5-1.78,5-4.74V81.7a9.09,9.09,0,0,1-4.74,1c-5.63,0-8.16-2.82-8.16-7.41V59.76h6.09V75c0,2.08.73,3.7,3.7,3.7a7.23,7.23,0,0,0,3.11-.74V59.76h6.09V81.85c0,7.26-4.31,10.08-10.24,10.08Z"/><path class="cls-1" d="M380.79,83c-4.44,0-6.67-2.37-6.67-6.22V63.91H371.6V59.76h2.52V55l6.08-1.62v6.37h3.71v4.15H380.2V76.22c0,2.07,1,2.66,2.52,2.66a9.72,9.72,0,0,0,2.08-.15v3.86a15.26,15.26,0,0,1-4,.44Z"/><polygon class="cls-1" points="361.39 82.74 361.39 59.76 367.45 59.76 367.45 82.74 361.39 82.74 361.39 82.74"/><path class="cls-1" d="M348.82,83.19a15.75,15.75,0,0,1-7.12-1.64l1.49-3.85A10.59,10.59,0,0,0,347.93,79c2.22,0,3.56-.74,3.56-2.51s-1-2.38-3.71-3.41c-4.45-1.78-5.34-4.45-5.34-7,0-3.7,2.82-6.82,7.86-6.82a13.33,13.33,0,0,1,6.53,1.63l-1.64,3.56A8.63,8.63,0,0,0,351,63.32c-2.07,0-3.11.89-3.11,2.37s1.63,2.22,3.71,3.11c4.59,1.78,5.62,4.45,5.62,7.27,0,4.15-3.4,7.12-8.44,7.12Z"/><path class="cls-1" d="M339.77,63.91a12.32,12.32,0,0,0-2.81-.3,10.58,10.58,0,0,0-2.53.3V82.74h-6.07V61.09a22.78,22.78,0,0,1,8.45-1.63,18.08,18.08,0,0,1,3.85.3l-.89,4.15Z"/><path class="cls-1" d="M276,56.94c-2.22,0-3.26-1.33-3.26-3s1-3,3.26-3a3,3,0,1,1,0,5.93Z"/><path class="cls-1" d="M295.63,82.74h-5.79l-7.86-23h6.53l3,10.82c.3,1,1,3.71,1.33,5H293a42.08,42.08,0,0,1,1.18-5l3.11-10.82h6.09l-7.71,23Z"/><polygon class="cls-1" points="272.82 82.74 272.82 59.76 278.9 59.76 278.9 82.74 272.82 82.74 272.82 82.74"/><path class="cls-1" d="M364.55,56.94c-2.22,0-3.26-1.33-3.26-3s1-3,3.26-3a3,3,0,1,1,0,5.93Z"/><path class="cls-1" d="M262.38,82.74V66.58c0-1.63-.73-3.26-3.7-3.26a7.61,7.61,0,0,0-3.11.59V82.74h-6.08V61.09A24.71,24.71,0,0,1,259,59.31c7,0,9.5,3.41,9.5,7.27V82.74Z"/><path class="cls-1" d="M234.78,83.19c-5.94,0-10.38-3.12-10.38-9.19V53.53h6.38V74c0,2.81,1.48,4.29,4,4.29s4-1.48,4-4.29V53.53h6.37V74c0,6.07-4.45,9.19-10.38,9.19Z"/><path class="cls-1" d="M429.56,59.31c-6.82,0-10.08,5-10.08,11.87s3.26,12,10.08,12,10.09-5,10.09-12-3.27-11.87-10.09-11.87Zm0,19.87c-3.11,0-3.85-3.56-3.85-8s.74-7.86,3.85-7.86,3.86,3.56,3.86,7.86-.74,8-3.86,8Z"/><path class="cls-1" d="M324.49,70.73c0-7.26-3.7-11.42-9.93-11.42s-10.23,4.45-10.23,11.87c0,7.7,4.3,12,11.12,12a17.13,17.13,0,0,0,8.15-1.78l-1.48-4A13.56,13.56,0,0,1,316,78.73c-2.82,0-5.34-1.18-5.78-5.62h14.23V70.73Zm-5.78-1.48h-8.6c0-4.45,1.78-6.08,4.31-6.08,2.37,0,4.29,1.48,4.29,5.78v.3Z"/><rect class="cls-2" width="192.09" height="192.09"/><path class="cls-1" d="M129.72,46.23a55,55,0,0,0-14-5.59V52.07a71.93,71.93,0,0,1,14,4.84Z"/><path class="cls-1" d="M110.71,83.62a2.52,2.52,0,0,0-2.48,2.61l-.75,23.36h6.58l-.87-23.36A2.45,2.45,0,0,0,110.71,83.62Z"/><path class="cls-1" d="M116.55,148c-7,0-11.93-1.61-18.26-4.83-6.84-3.48-14.41-6.47-24.11-6.47-9.07,0-18.76,3.24-26.09,14.17,8.82-5.47,17-7.21,23.86-7.21a38.21,38.21,0,0,1,18.63,4.84c6.47,3.36,12,5.72,20.13,5.72,7.83,0,16.65-3,24.23-12.92A27.92,27.92,0,0,1,116.55,148Z"/><path class="cls-1" d="M77.91,132.82c6.21,0,13.42,1.74,21.5,6.22V115.93l-3.36-4.23v-32l6.58-10.19L99.9,79.27a44.33,44.33,0,0,1,5.72-.37A48.27,48.27,0,0,1,123.13,82l6.59-6.09V59.4a80.85,80.85,0,0,0-14-4.85,73.44,73.44,0,0,0-9.44-1.61V38.65a75.92,75.92,0,0,0-10.81-.75,91.91,91.91,0,0,0-10.31.63V52.07A73.22,73.22,0,0,0,75.8,53.8V40.39a66.75,66.75,0,0,0-15,6.21V74.43l6.33,6.09-1.86,31.3-5.1,5.1v18.13l1.75,1.87A33.9,33.9,0,0,1,77.91,132.82Zm-1-46.59a2.49,2.49,0,1,1,5,0l.87,23.36H76.17Z"/></svg>